# xmcd CD database file
#
# Track frame offsets:
#	150
#	23208
#	41931
#	61100
#	83766
#	107256
#	129494
#	149570
#	172846
#	195362
#	220481
#	240584
#	262341
#	282305
#	302017
#	318835
#
# Disc length: 4521 seconds
#
# Revision: 4
# Processed by: cddbd v1.5.2PL0 Copyright (c) Steve Scherf et al.
# Submitted via: CDex 1.70beta3
#
DISCID=e111a710
DTITLE=椎名へきる - Best! ～Single Collection～[CD2]
DYEAR=2008
DGENRE=seiyu
TTITLE0=Love Graduation
TTITLE1=愛のカタチ
TTITLE2=Jungle Life
TTITLE3=嵐のち晴れ
TTITLE4=眠れる森
TTITLE5=あしたは消えない
TTITLE6=MOTTOスイーツ
TTITLE7=LOVE TOMORROW
TTITLE8=believe
TTITLE9=PROUD OF YOU
TTITLE10=スタンバイ!
TTITLE11=Color
TTITLE12=レヴェランス
TTITLE13=PARADISE
TTITLE14=Endless Dreamer
TTITLE15=メモリーズ
EXTD=YEAR: 2008
EXTT0=
EXTT1=
EXTT2=
EXTT3=
EXTT4=
EXTT5=
EXTT6=
EXTT7=
EXTT8=
EXTT9=
EXTT10=
EXTT11=
EXTT12=
EXTT13=
EXTT14=
EXTT15=
PLAYORDER=
